<?xml version="1.0" encoding="UTF-8"?>
<svg width="32.368mm" height="32.368mm" version="1.1" viewBox="0 0 32.368 32.368" xmlns="http://www.w3.org/2000/svg" xmlns:cc="http://creativecommons.org/ns#" xmlns:dc="http://purl.org/dc/elements/1.1/" xmlns:rdf="http://www.w3.org/1999/02/22-rdf-syntax-ns#">
 <defs>
  <marker id="marker1239" overflow="visible" orient="auto">
   <path transform="matrix(.8 0 0 .8 10 0)" d="m0 0 5-5-17.5 5 17.5 5z" fill-rule="evenodd" stroke="#000" stroke-width="1pt"/>
  </marker>
  <marker id="marker1239-2" overflow="visible" orient="auto">
   <path transform="matrix(.8 0 0 .8 10 0)" d="m0 0 5-5-17.5 5 17.5 5z" fill-rule="evenodd" stroke="#000" stroke-width="1pt"/>
  </marker>
  <marker id="marker1239-25" overflow="visible" orient="auto">
   <path transform="matrix(.8 0 0 .8 10 0)" d="m0 0 5-5-17.5 5 17.5 5z" fill-rule="evenodd" stroke="#000" stroke-width="1pt"/>
  </marker>
 </defs>
 <metadata>
  <rdf:RDF>
   <cc:Work rdf:about="">
    <dc:format>image/svg+xml</dc:format>
    <dc:type rdf:resource="http://purl.org/dc/dcmitype/StillImage"/>
    <dc:title/>
   </cc:Work>
  </rdf:RDF>
 </metadata>
 <g transform="translate(48.802 -88.502)">
  <g>
   <path x="79.335167" y="90.926987" width="17.270834" height="19.600861" ry="0" d="m82.76 94.096c6.2685-1.9597 5.8585-6.8489 6.3978 1.4695 0.11951 11.021 4.948 10.43 5.6011 14.621-6.1991 1.0379-11.247 2.3832-15.128 0.69252 2.2707-5.9828-2.9295-6.9579 3.1288-16.783z" fill="#fcab10" stop-color="#000000" stroke="#000" stroke-width=".198" style="paint-order:normal"/>
   <path d="m50.852 31.499h-32.153a16.084 16.084 0 0 0 16.077 15.598 16.084 16.084 0 0 0 16.077-15.598z" fill="#086f35" stop-color="#000000" stroke-width="0"/>
   <rect x="5.506" y="65.033" width="4.7575" height="5.2866" stop-color="#000000" stroke-width="0"/>
  </g>
  <path d="m16.135 57.062h43.779" fill="none" stroke="#000" stroke-width=".26458px"/>
  <path d="m-40.893 46.581v9.3074h8.7462v-9.3074zm4.3729 1.5219c0.0612 0 0.11967 0.02724 0.15864 0.07441l1.3472 1.6314c0.05058 0.06125 0.06122 0.1462 0.02739 0.21808-0.03385 0.07187-0.10607 0.11782-0.18552 0.11782h-0.35967l1.1472 1.3885c0.05057 0.06125 0.06122 0.1462 0.02739 0.21808-0.03385 0.07187-0.10607 0.11782-0.18552 0.11782h-0.65784l1.1472 1.3885c0.0506 0.06124 0.06122 0.1462 0.02739 0.21808-0.03385 0.07187-0.10607 0.11782-0.18552 0.11782h-1.4444v0.56792c0 0.1133-0.09186 0.20516-0.20516 0.20516h-1.3172c-0.1133 0-0.20516-0.09186-0.20516-0.20516v-0.56792h-1.4444c-0.07943 0-0.15167-0.04595-0.18552-0.11782-0.03385-0.07188-0.02321-0.15683 0.02739-0.21808l1.1472-1.3885h-0.65784c-0.07943 0-0.15167-0.04595-0.18552-0.11782-0.03385-0.07188-0.02321-0.15683 0.02739-0.21808l1.1472-1.3885h-0.35967c-0.07943 0-0.15167-0.04595-0.18552-0.11782-0.03385-0.07187-0.02321-0.15683 0.02739-0.21808l1.3472-1.6314c0.03897-0.04718 0.09693-0.07441 0.15813-0.07441z" stop-color="#000000" stroke="#000" stroke-width=".021"/>
  <path d="m68.458 90.839c7.5628-0.0526 13.666-6.1983 13.666-13.761 2.6e-5 -0.13856-2e-3 -0.27712-0.0062-0.41562h-27.51c-0.0043 0.1385-0.0066 0.27705-0.0067 0.41562 1.11e-4 7.6003 6.1614 13.761 13.762 13.761 0.03184 1.1e-4 0.06367 1.1e-4 0.09551 0h7.4e-5z" marker-mid="url(#marker1239-2)" stop-color="#000000" stroke-width="0"/>
  <g fill="#fcab13" stroke="#fcab10">
   <path d="m74.682 51.783c-0.03916-0.0017-0.07707 0.01404-0.10352 0.04297-0.04923 0.05442-0.04485 0.13849 0.0098 0.1875 0 0 0.84642 0.77012 1.4961 1.7812 0.32484 0.50556 0.59782 1.0698 0.69336 1.6172 0.09554 0.54738 0.02187 1.0714-0.34766 1.541-0.6612 0.84036-2.3207 2.0358-3.6445 3.4141-0.6619 0.68915-1.2436 1.4278-1.5762 2.2109-0.33259 0.78312-0.41195 1.6188-0.06055 2.459 0.02855 0.06746 0.10641 0.09895 0.17383 0.07031 0.06746-0.02855 0.0986-0.10626 0.07031-0.17383-0.32259-0.77035-0.25192-1.5162 0.06055-2.252 0.31247-0.73575 0.87164-1.4543 1.5215-2.1309 1.2997-1.3532 2.9452-2.5225 3.6621-3.4336 0.41906-0.5326 0.50716-1.1495 0.40234-1.75-0.10481-0.60054-0.39583-1.191-0.73242-1.7148-0.67319-1.0477-1.541-1.834-1.541-1.834-0.02296-0.02127-0.05272-0.03372-0.08398-0.03516z" color="#000000" color-rendering="auto" dominant-baseline="auto" image-rendering="auto" shape-rendering="auto" solid-color="#000000" stop-color="#000000" stroke-linecap="round" stroke-linejoin="round" stroke-width=".1" style="font-feature-settings:normal;font-variant-alternates:normal;font-variant-caps:normal;font-variant-east-asian:normal;font-variant-ligatures:normal;font-variant-numeric:normal;font-variant-position:normal;font-variation-settings:normal;inline-size:0;isolation:auto;mix-blend-mode:normal;shape-margin:0;shape-padding:0;text-decoration-color:#000000;text-decoration-line:none;text-decoration-style:solid;text-indent:0;text-orientation:mixed;text-transform:none;white-space:normal"/>
   <path d="m77.45 51.852-0.17969 0.19531s0.98905 0.91072 1.7793 2.0645c0.39512 0.57687 0.73836 1.2131 0.88477 1.8145 0.1464 0.6014 0.10166 1.1568-0.26367 1.6211-0.72375 0.91986-1.0676 2.5347-0.62695 4.1133 0.44061 1.5785 1.6855 3.1128 4.127 3.8223l0.07422-0.25391c-2.367-0.68784-3.5272-2.1408-3.9453-3.6387-0.4181-1.4979-0.07424-3.0473 0.58008-3.8789 0.42326-0.53794 0.4711-1.1962 0.3125-1.8477-0.1586-0.65148-0.51799-1.3079-0.92383-1.9004-0.81168-1.185-1.8184-2.1113-1.8184-2.1113z" color="#000000" color-rendering="auto" dominant-baseline="auto" image-rendering="auto" shape-rendering="auto" solid-color="#000000" stop-color="#000000" stroke-width=".1" style="font-feature-settings:normal;font-variant-alternates:normal;font-variant-caps:normal;font-variant-east-asian:normal;font-variant-ligatures:normal;font-variant-numeric:normal;font-variant-position:normal;font-variation-settings:normal;inline-size:0;isolation:auto;mix-blend-mode:normal;shape-margin:0;shape-padding:0;text-decoration-color:#000000;text-decoration-line:none;text-decoration-style:solid;text-indent:0;text-orientation:mixed;text-transform:none;white-space:normal"/>
   <path d="m71.234 65.111c3.1518 1.7497 6.4473 1.6012 6.4473 1.6012 2.9869-0.11043 4.6413-0.93655 5.4891-1.2297" stop-color="#000000" stroke-width=".37795" style="paint-order:normal"/>
   <path d="m74.579 51.826 2.8711 0.02539" stop-color="#000000" stroke-width=".37795" style="paint-order:normal"/>
  </g>
  <g transform="translate(-3.9012 5.0601)">
   <circle cx="34.42" cy="78.34" r="16.084" stop-color="#000000" stroke="#000" stroke-width=".2"/>
   <path d="m34.325 64.163a13.761 13.761 0 0 0-13.666 13.761 13.761 13.761 0 0 0 0.0062 0.41562h27.51a13.761 13.761 0 0 0 0.0067-0.41562 13.761 13.761 0 0 0-13.762-13.761 13.761 13.761 0 0 0-0.09551 0z" fill="#fcab10" stop-color="#000000" stroke-width="0"/>
   <path d="m30.08 74.527a0.23293 0.24281 0 0 0-0.0694-0.17045l-0.6633-0.61908-2.4219-2.2512a0.23139 0.2412 0 0 0-0.30852 0l-2.4157 2.2512-0.66948 0.61908a0.23756 0.24763 0 0 0-0.0756 0.1608 0.23447 0.24442 0 0 0 0.18357 0.25567c0 8e-3 0.46278 0 0.4782 0v3.3254a0.23139 0.2412 0 0 0 0.23139 0.2412h1.5657a0.23139 0.2412 0 0 0 0.23911-0.2412v-2.0004h1.2495v2.0004a0.23139 0.2412 0 0 0 0.23139 0.2412h1.5518a0.23139 0.2412 0 0 0 0.23139-0.2412v-3.3206h0.4782a0.23293 0.24281 0 0 0 0.18357-0.25085z" stroke-width=".1575"/>
   <g>
    <path d="m34.516 92.517a13.761 13.761 0 0 0 13.666-13.761 13.761 13.761 0 0 0-0.0062-0.41562h-27.51a13.761 13.761 0 0 0-0.0067 0.41562 13.761 13.761 0 0 0 13.762 13.761 13.761 13.761 0 0 0 0.09551 0z" marker-mid="url(#marker1239)" stop-color="#000000" stroke-width="0"/>
    <g transform="matrix(.030697 0 0 .030697 26.525 67.319)" stroke="#000" stroke-width=".99573">
     <path d="m440.7 322.35v17.201h43.002v-17.201z" stop-color="#000000"/>
     <path d="m424.87 240.59-51.456 62.311h177.57l-51.456-62.311z" stop-color="#000000"/>
     <path d="m440.57 158.82-51.456 62.311h146.16l-51.48-62.311z" stop-color="#000000"/>
     <path d="m462.19 87.004-43.223 52.362h86.47z" stop-color="#000000"/>
     <path d="m462.19 62.011c-2.902 0-5.65 1.2914-7.4979 3.5284l-63.879 77.355c-2.3989 2.904-2.9036 6.9322-1.2986 10.34 1.6049 3.408 5.0305 5.5866 8.7965 5.5866h17.054l-54.396 65.839c-2.3991 2.904-2.9038 6.9321-1.2987 10.34 1.6051 3.408 5.0305 5.5866 8.7965 5.5866h31.192l-54.396 65.839c-2.3989 2.9039-2.9036 6.9321-1.2986 10.34 1.6049 3.408 5.0305 5.5866 8.7965 5.5866h68.485v26.929c0 5.3721 4.3556 9.7276 9.7276 9.7276h62.458c5.372 0 9.7276-4.3555 9.7276-9.7276v-26.929h68.485c3.767 0 7.1915-2.1786 8.7966-5.5866 1.6039-3.4081 1.1004-7.4363-1.2987-10.34l-54.396-65.839h31.192c3.767 0 7.1915-2.1786 8.7965-5.5866 1.6041-3.4081 1.0994-7.4362-1.2986-10.34l-54.396-65.839h17.054c3.767 0 7.1915-2.1786 8.7966-5.5866 1.6039-3.408 1.0994-7.4362-1.2987-10.34l-63.879-77.355c-1.848-2.237-4.6204-3.5284-7.5222-3.5284zm0 24.993 43.247 52.362h-86.47zm-21.612 71.818h43.223l51.48 62.311h-146.16zm-15.706 81.766h74.66l51.456 62.311h-177.57zm15.829 81.766h43.002v17.201h-43.002z" stop-color="#000000"/>
    </g>
    <path d="m33.433 92.564c-0.06431-0.0093-0.30636-0.03983-0.53788-0.06788-1.2849-0.15563-2.7378-0.57744-3.9543-1.1481l-0.44639-0.20939-0.11487-0.40673c-0.28244-1-0.03875-1.9223 0.82057-3.1055 0.38558-0.53091 1.5908-1.7339 2.7128-2.7078 1.9967-1.7331 2.2686-2.128 2.2093-3.2091-0.05133-0.93576-0.55539-1.9293-1.5891-3.132l-0.45556-0.53008 2.0804 0.0078 0.52405 0.56902c1.2307 1.3364 1.9272 2.4261 2.1711 3.397 0.16241 0.64645 0.08008 1.0899-0.30074 1.62-1.0887 1.5154-1.0229 3.9471 0.15273 5.6477 0.24846 0.35941 0.8159 0.94617 1.1837 1.224 0.46658 0.35246 1.6332 0.9532 1.864 0.95991 0.11839 0.0034-0.16344 0.12529-0.80081 0.34624-1.5428 0.53483-2.9976 0.77986-4.56 0.76805-0.4632-0.0035-0.8948-0.01397-0.95912-0.02326z" fill="#fcab13" stop-color="#000000" stroke="#fcab10" stroke-width=".1" style="paint-order:normal"/>
   </g>
  </g>
  <g transform="translate(57.654 -27.7)" fill="none" stroke="#fcab10">
   <g stroke-width=".265">
    <path d="m28.067 90.963c-1.3473-3.2214 3.8843-6.198 5.2624-7.9495 1.5772-2.0045-1.8571-5.12-1.8571-5.12" stroke-linecap="round" stroke-linejoin="round"/>
    <path d="m40.004 91.333c-4.8084-1.3973-4.8107-5.9758-3.4326-7.7273 1.5772-2.0045-2.4153-5.6798-2.4153-5.6798"/>
    <path d="m28.066 90.962c3.1518 1.7497 6.4473 1.6012 6.4473 1.6012 2.9869-0.11043 4.6413-0.93655 5.4891-1.2297" stroke-linecap="round"/>
   </g>
   <path d="m31.971 78.205h2.6546" stroke-linecap="round" stroke-linejoin="round" stroke-width=".26458px"/>
  </g>
  <g transform="translate(-67.038 26.347)">
   <circle cx="34.42" cy="78.34" r="16.084" stop-color="#000000" stroke="#000" stroke-width=".2"/>
   <path d="m34.325 64.163a13.761 13.761 0 0 0-13.666 13.761 13.761 13.761 0 0 0 0.0062 0.41562h27.51a13.761 13.761 0 0 0 0.0067-0.41562 13.761 13.761 0 0 0-13.762-13.761 13.761 13.761 0 0 0-0.09551 0z" fill="#fcab10" stop-color="#000000" stroke-width="0"/>
   <path d="m30.08 74.527a0.23293 0.24281 0 0 0-0.0694-0.17045l-0.6633-0.61908-2.4219-2.2512a0.23139 0.2412 0 0 0-0.30852 0l-2.4157 2.2512-0.66948 0.61908a0.23756 0.24763 0 0 0-0.0756 0.1608 0.23447 0.24442 0 0 0 0.18357 0.25567c0 8e-3 0.46278 0 0.4782 0v3.3254a0.23139 0.2412 0 0 0 0.23139 0.2412h1.5657a0.23139 0.2412 0 0 0 0.23911-0.2412v-2.0004h1.2495v2.0004a0.23139 0.2412 0 0 0 0.23139 0.2412h1.5518a0.23139 0.2412 0 0 0 0.23139-0.2412v-3.3206h0.4782a0.23293 0.24281 0 0 0 0.18357-0.25085z" stroke-width=".1575"/>
   <g>
    <path d="m34.516 92.517a13.761 13.761 0 0 0 13.666-13.761 13.761 13.761 0 0 0-0.0062-0.41562h-27.51a13.761 13.761 0 0 0-0.0067 0.41562 13.761 13.761 0 0 0 13.762 13.761 13.761 13.761 0 0 0 0.09551 0z" marker-mid="url(#marker1239-25)" stop-color="#000000" stroke-width="0"/>
    <g transform="matrix(.030697 0 0 .030697 26.525 67.319)" stroke="#000" stroke-width=".99573">
     <path d="m440.7 322.35v17.201h43.002v-17.201z" stop-color="#000000"/>
     <path d="m424.87 240.59-51.456 62.311h177.57l-51.456-62.311z" stop-color="#000000"/>
     <path d="m440.57 158.82-51.456 62.311h146.16l-51.48-62.311z" stop-color="#000000"/>
     <path d="m462.19 87.004-43.223 52.362h86.47z" stop-color="#000000"/>
     <path d="m462.19 62.011c-2.902 0-5.65 1.2914-7.4979 3.5284l-63.879 77.355c-2.3989 2.904-2.9036 6.9322-1.2986 10.34 1.6049 3.408 5.0305 5.5866 8.7965 5.5866h17.054l-54.396 65.839c-2.3991 2.904-2.9038 6.9321-1.2987 10.34 1.6051 3.408 5.0305 5.5866 8.7965 5.5866h31.192l-54.396 65.839c-2.3989 2.9039-2.9036 6.9321-1.2986 10.34 1.6049 3.408 5.0305 5.5866 8.7965 5.5866h68.485v26.929c0 5.3721 4.3556 9.7276 9.7276 9.7276h62.458c5.372 0 9.7276-4.3555 9.7276-9.7276v-26.929h68.485c3.767 0 7.1915-2.1786 8.7966-5.5866 1.6039-3.4081 1.1004-7.4363-1.2987-10.34l-54.396-65.839h31.192c3.767 0 7.1915-2.1786 8.7965-5.5866 1.6041-3.4081 1.0994-7.4362-1.2986-10.34l-54.396-65.839h17.054c3.767 0 7.1915-2.1786 8.7966-5.5866 1.6039-3.408 1.0994-7.4362-1.2987-10.34l-63.879-77.355c-1.848-2.237-4.6204-3.5284-7.5222-3.5284zm0 24.993 43.247 52.362h-86.47zm-21.612 71.818h43.223l51.48 62.311h-146.16zm-15.706 81.766h74.66l51.456 62.311h-177.57zm15.829 81.766h43.002v17.201h-43.002z" stop-color="#000000"/>
    </g>
    <path d="m33.433 92.564c-0.06431-0.0093-0.30636-0.03983-0.53788-0.06788-1.2849-0.15563-2.7378-0.57744-3.9543-1.1481l-0.44639-0.20939-0.11487-0.40673c-0.28244-1-0.03875-1.9223 0.82057-3.1055 0.38558-0.53091 1.5908-1.7339 2.7128-2.7078 1.9967-1.7331 2.2686-2.128 2.2093-3.2091-0.05133-0.93576-0.55539-1.9293-1.5891-3.132l-0.45556-0.53008 2.0804 0.0078 0.52405 0.56902c1.2307 1.3364 1.9272 2.4261 2.1711 3.397 0.16241 0.64645 0.08008 1.0899-0.30074 1.62-1.0887 1.5154-1.0229 3.9471 0.15273 5.6477 0.24846 0.35941 0.8159 0.94617 1.1837 1.224 0.46658 0.35246 1.6332 0.9532 1.864 0.95991 0.11839 0.0034-0.16344 0.12529-0.80081 0.34624-1.5428 0.53483-2.9976 0.77986-4.56 0.76805-0.4632-0.0035-0.8948-0.01397-0.95912-0.02326z" fill="#fcab13" stop-color="#000000" stroke="#fcab10" stroke-width=".1" style="paint-order:normal"/>
   </g>
  </g>
 </g>
</svg>
